<?xml version="1.0" encoding="UTF-8" standalone="no"?>
<!-- Created with Inkscape (http://www.inkscape.org/) -->

<svg
   xmlns:dc="http://purl.org/dc/elements/1.1/"
   xmlns:cc="http://creativecommons.org/ns#"
   xmlns:rdf="http://www.w3.org/1999/02/22-rdf-syntax-ns#"
   xmlns:svg="http://www.w3.org/2000/svg"
   xmlns="http://www.w3.org/2000/svg"
   xmlns:sodipodi="http://sodipodi.sourceforge.net/DTD/sodipodi-0.dtd"
   xmlns:inkscape="http://www.inkscape.org/namespaces/inkscape"
   id="svg2"
   version="1.1"
   inkscape:version="0.91 r13725"
   xml:space="preserve"
   width="700"
   height="383"
   viewBox="0 0 700 382.99999"
   sodipodi:docname="Logo Hautes Alpes.svg"><metadata
     id="metadata8"><rdf:RDF><cc:Work
         rdf:about=""><dc:format>image/svg+xml</dc:format><dc:type
           rdf:resource="http://purl.org/dc/dcmitype/StillImage" /><dc:title></dc:title></cc:Work></rdf:RDF></metadata><defs
     id="defs6"><clipPath
       clipPathUnits="userSpaceOnUse"
       id="clipPath18"><path
         d="m 0,0 566.929,0 0,822.047 L 0,822.047 0,0 Z"
         id="path20"
         inkscape:connector-curvature="0" /></clipPath><clipPath
       id="clipPath4413"
       clipPathUnits="userSpaceOnUse"><path
         inkscape:connector-curvature="0"
         id="path4415"
         d="m 0,0 566.929,0 0,822.047 L 0,822.047 0,0 Z" /></clipPath></defs><sodipodi:namedview
     pagecolor="#ffffff"
     bordercolor="#666666"
     borderopacity="1"
     objecttolerance="10"
     gridtolerance="10"
     guidetolerance="10"
     inkscape:pageopacity="0"
     inkscape:pageshadow="2"
     inkscape:window-width="1280"
     inkscape:window-height="692"
     id="namedview4"
     showgrid="false"
     inkscape:zoom="1"
     inkscape:cx="587.1662"
     inkscape:cy="103.59662"
     inkscape:window-x="0"
     inkscape:window-y="1"
     inkscape:window-maximized="1"
     inkscape:current-layer="g10" /><g
     id="g10"
     inkscape:groupmode="layer"
     inkscape:label="Logo Hautes Alpes"
     transform="matrix(1.25,0,0,-1.25,0,383.00008)"><g
       id="g5941"
       transform="matrix(4.808776,0,0,4.808776,-1966.5868,-230.57245)"><g
         style="fill:#b93521;fill-opacity:1"
         id="g5690"><path
           d="m 420.9396,64.3215 c 0,-0.282 -0.101,-0.522 -0.298,-0.72 -0.199,-0.198 -0.437,-0.298 -0.72,-0.298 -0.282,0 -0.522,0.1 -0.721,0.298 -0.198,0.198 -0.297,0.438 -0.297,0.72 l 0,5.645 -7.578,0 0,-5.645 c 0,-0.282 -0.098,-0.522 -0.298,-0.72 -0.199,-0.198 -0.437,-0.298 -0.719,-0.298 -0.282,0 -0.522,0.1 -0.72,0.298 -0.198,0.198 -0.298,0.438 -0.298,0.72 l 0,13.327 c 0,0.28 0.1,0.521 0.298,0.72 0.198,0.197 0.438,0.298 0.72,0.298 0.282,0 0.52,-0.101 0.719,-0.298 0.2,-0.199 0.298,-0.44 0.298,-0.72 l 0,-5.646 7.578,0 0,5.646 c 0,0.28 0.099,0.521 0.297,0.72 0.199,0.197 0.439,0.298 0.721,0.298 0.283,0 0.521,-0.101 0.72,-0.298 0.197,-0.199 0.298,-0.44 0.298,-0.72 l 0,-13.327 z"
           style="fill:#b93521;fill-opacity:1;fill-rule:nonzero;stroke:none"
           id="path34"
           inkscape:connector-curvature="0" /><path
           d="m 427.2355,72.0508 c -0.475,0 -0.915,-0.091 -1.325,-0.27 -0.41,-0.179 -0.764,-0.42 -1.066,-0.724 -0.301,-0.303 -0.539,-0.661 -0.715,-1.07 -0.176,-0.41 -0.265,-0.846 -0.265,-1.306 0,-0.461 0.089,-0.896 0.265,-1.306 0.176,-0.41 0.414,-0.766 0.715,-1.07 0.302,-0.305 0.656,-0.546 1.066,-0.725 0.41,-0.179 0.85,-0.269 1.325,-0.269 0.467,0 0.905,0.09 1.316,0.269 0.409,0.179 0.765,0.422 1.069,0.73 0.305,0.307 0.544,0.663 0.72,1.069 0.177,0.407 0.265,0.841 0.265,1.302 0,0.46 -0.088,0.894 -0.265,1.3 -0.176,0.407 -0.415,0.764 -0.72,1.071 -0.304,0.308 -0.66,0.55 -1.069,0.729 -0.411,0.179 -0.849,0.27 -1.316,0.27 m 3.37,-7.749 0,0.193 c -0.481,-0.385 -1.002,-0.679 -1.566,-0.885 -0.563,-0.204 -1.164,-0.305 -1.804,-0.305 -1.486,0 -2.751,0.524 -3.801,1.574 -1.051,1.05 -1.576,2.317 -1.576,3.802 0,1.484 0.525,2.752 1.576,3.802 1.05,1.05 2.315,1.574 3.801,1.574 1.473,0 2.74,-0.524 3.801,-1.574 1.051,-1.05 1.576,-2.318 1.576,-3.802 l 0,-4.379 c 0,-0.273 -0.099,-0.51 -0.293,-0.704 -0.196,-0.196 -0.432,-0.293 -0.705,-0.293 -0.283,0 -0.52,0.097 -0.716,0.293 -0.197,0.194 -0.293,0.431 -0.293,0.704"
           style="fill:#b93521;fill-opacity:1;fill-rule:nonzero;stroke:none"
           id="path36"
           inkscape:connector-curvature="0" /><path
           d="m 442.5082,63.3038 c -0.289,0 -0.525,0.097 -0.711,0.289 -0.185,0.193 -0.281,0.425 -0.289,0.701 -0.442,-0.346 -0.907,-0.597 -1.401,-0.755 -0.493,-0.158 -1.027,-0.235 -1.603,-0.235 -0.685,0 -1.333,0.133 -1.94,0.398 -0.608,0.266 -1.139,0.627 -1.594,1.082 -0.453,0.453 -0.814,0.985 -1.08,1.593 -0.265,0.608 -0.398,1.255 -0.398,1.939 l 0,4.743 c 0,0.276 0.097,0.511 0.292,0.705 0.196,0.196 0.435,0.292 0.716,0.292 0.275,0 0.511,-0.096 0.706,-0.292 0.195,-0.194 0.293,-0.429 0.293,-0.705 l 0,-4.743 c 0,-0.417 0.077,-0.806 0.236,-1.171 0.155,-0.365 0.37,-0.683 0.642,-0.956 0.272,-0.272 0.591,-0.486 0.955,-0.643 0.366,-0.158 0.755,-0.235 1.172,-0.235 0.409,0 0.797,0.077 1.161,0.235 0.365,0.157 0.684,0.373 0.961,0.648 0.275,0.275 0.491,0.594 0.647,0.955 0.158,0.363 0.235,0.75 0.235,1.167 l 0,4.743 c 0,0.276 0.099,0.511 0.294,0.705 0.195,0.196 0.433,0.292 0.715,0.292 0.275,0 0.51,-0.096 0.705,-0.292 0.196,-0.194 0.294,-0.429 0.294,-0.705 l 0,-8.756 c 0,-0.276 -0.098,-0.511 -0.294,-0.706 -0.195,-0.194 -0.433,-0.293 -0.714,-0.293"
           style="fill:#b93521;fill-opacity:1;fill-rule:nonzero;stroke:none"
           id="path38"
           inkscape:connector-curvature="0" /><path
           d="m 444.6842,72.0497 0,-4.829 c 0,-2.611 1.31,-3.917 3.926,-3.917 0.276,0 0.509,0.098 0.702,0.293 0.192,0.194 0.288,0.434 0.288,0.716 0,0.275 -0.096,0.509 -0.288,0.706 -0.193,0.195 -0.426,0.292 -0.702,0.292 -1.278,0 -1.918,0.636 -1.918,1.91 l 0,4.829 1.199,0 c 0.275,0 0.509,0.099 0.701,0.294 0.192,0.195 0.288,0.432 0.288,0.715 0,0.276 -0.096,0.51 -0.288,0.705 -0.192,0.195 -0.426,0.293 -0.701,0.293 l -1.199,0 0,3.61 c 0,0.276 -0.099,0.511 -0.294,0.706 -0.195,0.194 -0.431,0.293 -0.705,0.293 -0.282,0 -0.521,-0.099 -0.716,-0.293 -0.195,-0.195 -0.293,-0.43 -0.293,-0.706 l 0,-3.61 0,-2.007 z"
           style="fill:#b93521;fill-opacity:1;fill-rule:nonzero;stroke:none"
           id="path40"
           inkscape:connector-curvature="0" /><path
           d="m 457.8881,69.6794 c -0.108,0.351 -0.271,0.673 -0.483,0.965 -0.215,0.29 -0.466,0.541 -0.75,0.749 -0.284,0.207 -0.599,0.369 -0.941,0.485 -0.344,0.115 -0.697,0.172 -1.061,0.172 -0.365,0 -0.72,-0.057 -1.065,-0.172 -0.347,-0.116 -0.662,-0.278 -0.953,-0.485 -0.287,-0.208 -0.537,-0.459 -0.747,-0.749 -0.212,-0.292 -0.369,-0.614 -0.47,-0.965 l 6.47,0 z m -0.432,-3.351 c 0.287,0 0.528,-0.095 0.716,-0.282 0.188,-0.191 0.282,-0.427 0.282,-0.716 0,-0.282 -0.094,-0.522 -0.287,-0.72 -0.991,-0.87 -2.162,-1.307 -3.514,-1.307 -1.485,0 -2.752,0.525 -3.802,1.576 -1.051,1.049 -1.576,2.316 -1.576,3.802 0,1.484 0.525,2.751 1.576,3.801 1.05,1.051 2.317,1.575 3.802,1.575 1.473,0 2.739,-0.524 3.801,-1.575 0.525,-0.519 0.918,-1.097 1.183,-1.734 0.261,-0.635 0.392,-1.326 0.392,-2.067 0,-0.288 -0.097,-0.528 -0.293,-0.716 -0.193,-0.189 -0.434,-0.283 -0.714,-0.283 l -7.604,0 c 0.108,-0.352 0.267,-0.674 0.479,-0.964 0.211,-0.291 0.459,-0.542 0.745,-0.749 0.285,-0.209 0.598,-0.37 0.941,-0.487 0.342,-0.114 0.7,-0.172 1.07,-0.172 0.423,0 0.809,0.065 1.162,0.192 0.352,0.128 0.678,0.32 0.979,0.577 0.193,0.16 0.411,0.242 0.662,0.249"
           style="fill:#b93521;fill-opacity:1;fill-rule:nonzero;stroke:none"
           id="path42"
           inkscape:connector-curvature="0" /><path
           d="m 462.569,68.4219 c -0.603,0.229 -1.027,0.467 -1.267,0.71 l 0.01,0 c -0.488,0.492 -0.733,1.072 -0.733,1.738 0,0.486 0.132,0.926 0.391,1.319 0.258,0.396 0.597,0.73 1.012,1.004 0.418,0.275 0.886,0.489 1.407,0.639 0.523,0.15 1.045,0.225 1.57,0.225 1.599,0 2.972,-0.643 4.118,-1.929 0.135,-0.166 0.202,-0.368 0.202,-0.606 0,-0.287 -0.095,-0.526 -0.283,-0.716 -0.188,-0.188 -0.428,-0.282 -0.715,-0.282 -0.205,0 -0.38,0.057 -0.523,0.173 -0.145,0.115 -0.285,0.24 -0.42,0.375 -0.651,0.652 -1.445,0.979 -2.379,0.979 -0.923,0 -1.659,-0.282 -2.208,-0.844 -0.105,-0.104 -0.156,-0.245 -0.156,-0.423 0,-0.18 0.084,-0.302 0.251,-0.365 l 4.492,-1.478 c 0.63,-0.245 1.049,-0.482 1.268,-0.712 l -0.007,0 c 0.485,-0.493 0.728,-1.071 0.728,-1.737 0,-0.493 -0.13,-0.936 -0.39,-1.325 -0.258,-0.391 -0.595,-0.725 -1.012,-1.003 -0.415,-0.279 -0.883,-0.491 -1.403,-0.639 -0.516,-0.148 -1.039,-0.221 -1.563,-0.221 -1.613,0 -2.986,0.637 -4.118,1.911 -0.143,0.186 -0.213,0.393 -0.213,0.625 0,0.287 0.094,0.525 0.285,0.714 0.188,0.188 0.426,0.284 0.713,0.284 0.213,0 0.391,-0.064 0.54,-0.188 0.146,-0.125 0.28,-0.245 0.403,-0.36 0.651,-0.653 1.448,-0.979 2.39,-0.979 0.916,0 1.652,0.288 2.206,0.865 0.098,0.108 0.146,0.239 0.146,0.393 0,0.178 -0.086,0.303 -0.259,0.373 l -4.483,1.48 z"
           style="fill:#b93521;fill-opacity:1;fill-rule:nonzero;stroke:none"
           id="path44"
           inkscape:connector-curvature="0" /><path
           d="m 471.6991,67.6822 c -0.286,0 -0.527,0.095 -0.714,0.284 -0.189,0.188 -0.283,0.426 -0.283,0.715 0,0.287 0.094,0.526 0.283,0.715 0.187,0.188 0.428,0.283 0.714,0.283 l 4.379,0 c 0.286,0 0.527,-0.095 0.715,-0.283 0.189,-0.189 0.284,-0.428 0.284,-0.715 0,-0.289 -0.095,-0.527 -0.284,-0.715 -0.188,-0.189 -0.429,-0.284 -0.715,-0.284 l -4.379,0 z"
           style="fill:#b93521;fill-opacity:1;fill-rule:nonzero;stroke:none"
           id="path46"
           inkscape:connector-curvature="0" /><path
           d="m 485.0199,70.5241 -1.671,4.31 -1.67,-4.31 3.341,0 z m -7.768,-5.741 5.124,13.19 c 0.208,0.462 0.531,0.693 0.973,0.693 0.454,0 0.776,-0.231 0.968,-0.693 l 5.145,-13.238 c 0.054,-0.13 0.078,-0.268 0.078,-0.414 0,-0.281 -0.098,-0.522 -0.297,-0.72 -0.199,-0.198 -0.439,-0.297 -0.719,-0.297 -0.284,0 -0.518,0.099 -0.711,0.297 -0.104,0.103 -0.18,0.211 -0.231,0.326 l -1.776,4.562 -4.915,0 -1.788,-4.562 c -0.048,-0.115 -0.128,-0.223 -0.229,-0.326 -0.198,-0.198 -0.438,-0.297 -0.722,-0.297 -0.28,0 -0.519,0.099 -0.714,0.297 -0.194,0.198 -0.292,0.439 -0.292,0.72 0,0.154 0.036,0.308 0.106,0.462"
           style="fill:#b93521;fill-opacity:1;fill-rule:nonzero;stroke:none"
           id="path48"
           inkscape:connector-curvature="0" /><path
           d="m 495.3936,68.6813 c 0,-0.461 0.089,-0.897 0.263,-1.307 0.177,-0.409 0.414,-0.766 0.716,-1.07 0.299,-0.304 0.656,-0.545 1.064,-0.725 0.411,-0.178 0.852,-0.269 1.327,-0.269 0.465,0 0.903,0.091 1.315,0.269 0.409,0.18 0.766,0.423 1.068,0.731 0.305,0.306 0.547,0.663 0.722,1.069 0.174,0.407 0.264,0.841 0.264,1.302 0,0.46 -0.09,0.895 -0.264,1.301 -0.175,0.405 -0.417,0.762 -0.722,1.069 -0.302,0.308 -0.659,0.551 -1.068,0.73 -0.412,0.18 -0.85,0.271 -1.315,0.271 -0.475,0 -0.916,-0.091 -1.327,-0.271 -0.408,-0.179 -0.765,-0.42 -1.064,-0.724 -0.302,-0.304 -0.539,-0.661 -0.716,-1.07 -0.174,-0.41 -0.263,-0.846 -0.263,-1.306 m 3.37,-5.378 c -1.288,0 -2.411,0.395 -3.37,1.181 l 0,-4.79 c 0,-0.289 -0.099,-0.527 -0.295,-0.715 -0.193,-0.188 -0.432,-0.284 -0.716,-0.284 -0.286,0 -0.524,0.096 -0.714,0.284 -0.187,0.188 -0.282,0.426 -0.282,0.715 l 0,8.987 c 0,1.485 0.524,2.751 1.571,3.8 1.052,1.051 2.319,1.576 3.806,1.576 1.471,0 2.738,-0.525 3.802,-1.576 0.523,-0.518 0.918,-1.096 1.179,-1.731 0.263,-0.638 0.395,-1.328 0.395,-2.069 0,-1.498 -0.525,-2.765 -1.574,-3.801 -0.538,-0.534 -1.122,-0.927 -1.755,-1.187 -0.629,-0.26 -1.313,-0.39 -2.047,-0.39"
           style="fill:#b93521;fill-opacity:1;fill-rule:nonzero;stroke:none"
           id="path50"
           inkscape:connector-curvature="0" /><path
           d="m 513.639,69.6794 c -0.109,0.351 -0.272,0.673 -0.485,0.965 -0.212,0.29 -0.463,0.541 -0.747,0.749 -0.288,0.207 -0.599,0.369 -0.941,0.485 -0.343,0.115 -0.698,0.172 -1.06,0.172 -0.366,0 -0.721,-0.057 -1.066,-0.172 -0.346,-0.116 -0.664,-0.278 -0.951,-0.485 -0.291,-0.208 -0.537,-0.459 -0.751,-0.749 -0.21,-0.292 -0.366,-0.614 -0.469,-0.965 l 6.47,0 z m -0.433,-3.351 c 0.289,0 0.529,-0.095 0.718,-0.282 0.188,-0.191 0.281,-0.427 0.281,-0.716 0,-0.282 -0.096,-0.522 -0.288,-0.72 -0.992,-0.87 -2.163,-1.307 -3.511,-1.307 -1.486,0 -2.754,0.525 -3.804,1.576 -1.05,1.049 -1.576,2.316 -1.576,3.802 0,1.484 0.526,2.751 1.576,3.801 1.05,1.051 2.318,1.575 3.804,1.575 1.471,0 2.739,-0.524 3.799,-1.575 0.525,-0.519 0.922,-1.097 1.182,-1.734 0.262,-0.635 0.394,-1.326 0.394,-2.067 0,-0.288 -0.097,-0.528 -0.293,-0.716 -0.194,-0.189 -0.434,-0.283 -0.714,-0.283 l -7.605,0 c 0.109,-0.352 0.269,-0.674 0.48,-0.964 0.213,-0.291 0.459,-0.542 0.743,-0.749 0.286,-0.209 0.601,-0.37 0.942,-0.487 0.342,-0.114 0.699,-0.172 1.072,-0.172 0.42,0 0.809,0.065 1.158,0.192 0.354,0.128 0.682,0.32 0.981,0.577 0.192,0.16 0.414,0.242 0.661,0.249"
           style="fill:#b93521;fill-opacity:1;fill-rule:nonzero;stroke:none"
           id="path52"
           inkscape:connector-curvature="0" /><path
           d="m 518.3209,68.4219 c -0.605,0.229 -1.025,0.467 -1.271,0.71 l 0.014,0 c -0.487,0.492 -0.733,1.072 -0.733,1.738 0,0.486 0.131,0.926 0.391,1.319 0.257,0.396 0.596,0.73 1.015,1.004 0.413,0.275 0.882,0.489 1.404,0.639 0.522,0.15 1.044,0.225 1.568,0.225 1.602,0 2.976,-0.643 4.119,-1.929 0.134,-0.166 0.202,-0.368 0.202,-0.606 0,-0.287 -0.095,-0.526 -0.282,-0.716 -0.189,-0.188 -0.428,-0.282 -0.717,-0.282 -0.203,0 -0.377,0.057 -0.521,0.173 -0.146,0.115 -0.284,0.24 -0.419,0.375 -0.652,0.652 -1.447,0.979 -2.382,0.979 -0.92,0 -1.655,-0.282 -2.206,-0.844 -0.104,-0.104 -0.155,-0.245 -0.155,-0.423 0,-0.18 0.082,-0.302 0.251,-0.365 l 4.492,-1.478 c 0.628,-0.245 1.05,-0.482 1.267,-0.712 l -0.008,0 c 0.487,-0.493 0.729,-1.071 0.729,-1.737 0,-0.493 -0.13,-0.936 -0.388,-1.325 -0.259,-0.391 -0.599,-0.725 -1.013,-1.003 -0.416,-0.279 -0.884,-0.491 -1.405,-0.639 -0.515,-0.148 -1.039,-0.221 -1.564,-0.221 -1.612,0 -2.984,0.637 -4.117,1.911 -0.14,0.186 -0.21,0.393 -0.21,0.625 0,0.287 0.09,0.525 0.283,0.714 0.188,0.188 0.427,0.284 0.713,0.284 0.211,0 0.39,-0.064 0.538,-0.188 0.149,-0.125 0.283,-0.245 0.405,-0.36 0.653,-0.653 1.445,-0.979 2.388,-0.979 0.916,0 1.654,0.288 2.208,0.865 0.097,0.108 0.145,0.239 0.145,0.393 0,0.178 -0.086,0.303 -0.258,0.373 l -4.483,1.48 z"
           style="fill:#b93521;fill-opacity:1;fill-rule:nonzero;stroke:none"
           id="path54"
           inkscape:connector-curvature="0" /><path
           d="m 492.36,77.9458 c -0.045,0.148 -0.121,0.284 -0.233,0.401 -0.126,0.129 -0.277,0.212 -0.447,0.256 -0.083,0.022 -0.169,0.037 -0.262,0.037 l 0,-0.002 -0.005,0.002 c -0.289,0 -0.528,-0.098 -0.717,-0.293 -0.189,-0.196 -0.284,-0.433 -0.284,-0.715 l 0,-1 0,-12.346 0,-0.009 c 0,-0.108 0.019,-0.208 0.048,-0.304 0.045,-0.148 0.119,-0.284 0.235,-0.402 0.125,-0.13 0.275,-0.212 0.445,-0.256 0.084,-0.02 0.17,-0.037 0.261,-0.037 l 0,10e-4 0.009,-10e-4 c 0.286,0 0.525,0.098 0.715,0.293 0.188,0.195 0.284,0.435 0.284,0.715 l 0,0.999 0,12.347 0,0.008 c 0,0.109 -0.019,0.209 -0.049,0.306"
           style="fill:#b93521;fill-opacity:1;fill-rule:nonzero;stroke:none"
           id="path56"
           inkscape:connector-curvature="0" /></g><g
         style="fill:#b3b3b3;fill-opacity:1"
         id="g5704"><path
           d="m 435.1966,54.2593 c -0.059,0.192 -0.147,0.366 -0.265,0.525 -0.116,0.159 -0.252,0.295 -0.406,0.409 -0.155,0.113 -0.326,0.201 -0.513,0.262 -0.186,0.063 -0.379,0.096 -0.577,0.096 -0.199,0 -0.393,-0.033 -0.58,-0.096 -0.189,-0.061 -0.362,-0.149 -0.518,-0.262 -0.157,-0.114 -0.293,-0.25 -0.407,-0.409 -0.115,-0.159 -0.199,-0.333 -0.257,-0.525 l 3.523,0 z m -0.234,-1.824 c 0.157,0 0.285,-0.051 0.388,-0.154 0.104,-0.102 0.155,-0.232 0.155,-0.389 0,-0.153 -0.052,-0.286 -0.158,-0.392 -0.539,-0.475 -1.178,-0.71 -1.912,-0.71 -0.808,0 -1.498,0.285 -2.071,0.857 -0.57,0.57 -0.856,1.259 -0.856,2.069 0,0.809 0.286,1.499 0.856,2.07 0.573,0.571 1.263,0.856 2.071,0.856 0.8,0 1.49,-0.285 2.07,-0.856 0.285,-0.283 0.5,-0.598 0.642,-0.944 0.142,-0.348 0.215,-0.722 0.215,-1.126 0,-0.156 -0.054,-0.286 -0.16,-0.39 -0.106,-0.102 -0.234,-0.154 -0.389,-0.154 l -4.14,0 c 0.06,-0.192 0.147,-0.367 0.262,-0.527 0.114,-0.157 0.25,-0.293 0.405,-0.406 0.154,-0.113 0.325,-0.201 0.512,-0.264 0.186,-0.063 0.38,-0.093 0.583,-0.093 0.23,0 0.44,0.034 0.632,0.105 0.192,0.07 0.37,0.173 0.533,0.313 0.105,0.087 0.225,0.132 0.362,0.135"
           style="fill:#b3b3b3;fill-opacity:1;fill-rule:nonzero;stroke:none"
           id="path58"
           inkscape:connector-curvature="0" /><path
           d="m 444.0417,53.716 c 0,0.25 -0.048,0.487 -0.144,0.707 -0.095,0.223 -0.225,0.417 -0.391,0.584 -0.166,0.167 -0.361,0.299 -0.584,0.398 -0.222,0.097 -0.461,0.146 -0.715,0.146 -0.258,0 -0.498,-0.049 -0.722,-0.146 -0.222,-0.099 -0.417,-0.229 -0.581,-0.395 -0.162,-0.166 -0.292,-0.36 -0.389,-0.583 -0.095,-0.223 -0.143,-0.461 -0.143,-0.711 0,-0.25 0.048,-0.488 0.143,-0.711 0.097,-0.223 0.227,-0.417 0.389,-0.583 0.164,-0.166 0.359,-0.295 0.581,-0.394 0.224,-0.098 0.464,-0.146 0.722,-0.146 0.254,0 0.493,0.048 0.715,0.146 0.223,0.099 0.418,0.23 0.584,0.398 0.166,0.166 0.296,0.36 0.391,0.582 0.096,0.221 0.144,0.458 0.144,0.708 m -1.834,2.927 c 0.692,0 1.305,-0.214 1.834,-0.643 l 0,2.608 c 0,0.158 0.051,0.286 0.154,0.39 0.103,0.103 0.233,0.153 0.39,0.153 0.153,0 0.282,-0.05 0.388,-0.153 0.106,-0.104 0.16,-0.232 0.16,-0.39 l 0,-4.892 c 0,-0.816 -0.285,-1.505 -0.858,-2.07 -0.578,-0.571 -1.267,-0.856 -2.068,-0.856 -0.81,0 -1.499,0.285 -2.071,0.856 -0.57,0.573 -0.856,1.261 -0.856,2.07 0,0.809 0.286,1.498 0.856,2.071 0.572,0.57 1.261,0.856 2.071,0.856"
           style="fill:#b3b3b3;fill-opacity:1;fill-rule:nonzero;stroke:none"
           id="path60"
           inkscape:connector-curvature="0" /><path
           d="m 449.8289,58.2162 -1.045,-1.04 c -0.098,-0.099 -0.224,-0.148 -0.376,-0.148 -0.157,0 -0.287,0.053 -0.391,0.156 -0.101,0.102 -0.152,0.232 -0.152,0.388 0,0.152 0.044,0.275 0.135,0.371 l 1.045,1.041 c 0.111,0.108 0.24,0.162 0.388,0.162 0.156,0 0.286,-0.054 0.389,-0.158 0.102,-0.107 0.154,-0.238 0.154,-0.39 0,-0.157 -0.048,-0.284 -0.147,-0.382 m 0.633,-3.957 c -0.059,0.193 -0.148,0.368 -0.264,0.526 -0.117,0.158 -0.253,0.293 -0.408,0.407 -0.155,0.113 -0.326,0.201 -0.512,0.264 -0.186,0.062 -0.38,0.094 -0.578,0.094 -0.198,0 -0.393,-0.032 -0.579,-0.094 -0.189,-0.063 -0.362,-0.151 -0.517,-0.264 -0.157,-0.114 -0.294,-0.249 -0.41,-0.407 -0.113,-0.158 -0.199,-0.333 -0.255,-0.526 l 3.523,0 z m -0.236,-1.824 c 0.157,0 0.288,-0.051 0.39,-0.153 0.102,-0.105 0.154,-0.233 0.154,-0.39 0,-0.152 -0.053,-0.285 -0.156,-0.392 -0.542,-0.473 -1.179,-0.711 -1.914,-0.711 -0.808,0 -1.497,0.286 -2.07,0.857 -0.57,0.571 -0.856,1.263 -0.856,2.069 0,0.809 0.286,1.499 0.856,2.072 0.573,0.57 1.262,0.856 2.07,0.856 0.801,0 1.491,-0.286 2.07,-0.856 0.285,-0.283 0.5,-0.599 0.642,-0.945 0.143,-0.347 0.216,-0.721 0.216,-1.127 0,-0.155 -0.055,-0.285 -0.16,-0.389 -0.106,-0.102 -0.236,-0.155 -0.39,-0.155 l -4.139,0 c 0.059,-0.189 0.146,-0.366 0.262,-0.523 0.114,-0.16 0.249,-0.296 0.404,-0.409 0.155,-0.113 0.326,-0.201 0.513,-0.263 0.186,-0.063 0.38,-0.094 0.582,-0.094 0.23,0 0.441,0.034 0.633,0.105 0.191,0.07 0.368,0.172 0.532,0.312 0.105,0.088 0.226,0.133 0.361,0.136"
           style="fill:#b3b3b3;fill-opacity:1;fill-rule:nonzero;stroke:none"
           id="path62"
           inkscape:connector-curvature="0" /><path
           d="m 453.5127,53.716 c 0,-0.25 0.048,-0.488 0.144,-0.711 0.095,-0.223 0.225,-0.417 0.389,-0.583 0.164,-0.166 0.358,-0.295 0.581,-0.394 0.222,-0.098 0.462,-0.146 0.721,-0.146 0.254,0 0.492,0.048 0.716,0.146 0.223,0.099 0.418,0.23 0.582,0.398 0.165,0.166 0.296,0.36 0.393,0.582 0.095,0.221 0.143,0.458 0.143,0.708 0,0.25 -0.048,0.487 -0.143,0.707 -0.097,0.223 -0.228,0.417 -0.393,0.584 -0.164,0.167 -0.359,0.299 -0.582,0.398 -0.224,0.097 -0.462,0.146 -0.716,0.146 -0.259,0 -0.499,-0.049 -0.721,-0.146 -0.223,-0.099 -0.417,-0.229 -0.581,-0.395 -0.164,-0.166 -0.294,-0.36 -0.389,-0.583 -0.096,-0.223 -0.144,-0.461 -0.144,-0.711 m 1.835,-2.926 c -0.7,0 -1.311,0.213 -1.835,0.642 l 0,-2.608 c 0,-0.157 -0.052,-0.286 -0.159,-0.389 -0.107,-0.104 -0.236,-0.154 -0.39,-0.154 -0.156,0 -0.286,0.05 -0.389,0.154 -0.102,0.103 -0.153,0.232 -0.153,0.389 l 0,4.892 c 0,0.809 0.284,1.498 0.857,2.071 0.57,0.57 1.26,0.856 2.069,0.856 0.802,0 1.492,-0.286 2.07,-0.856 0.286,-0.284 0.499,-0.598 0.643,-0.944 0.143,-0.348 0.214,-0.723 0.214,-1.127 0,-0.816 -0.287,-1.505 -0.857,-2.07 -0.293,-0.289 -0.612,-0.504 -0.954,-0.645 -0.344,-0.142 -0.716,-0.211 -1.116,-0.211"
           style="fill:#b3b3b3;fill-opacity:1;fill-rule:nonzero;stroke:none"
           id="path64"
           inkscape:connector-curvature="0" /><path
           d="m 461.9717,55.551 c -0.26,0 -0.499,-0.049 -0.722,-0.147 -0.223,-0.097 -0.417,-0.229 -0.58,-0.394 -0.164,-0.166 -0.294,-0.36 -0.39,-0.584 -0.095,-0.222 -0.143,-0.459 -0.143,-0.71 0,-0.25 0.048,-0.488 0.143,-0.711 0.096,-0.222 0.226,-0.416 0.39,-0.581 0.163,-0.167 0.357,-0.297 0.58,-0.396 0.223,-0.098 0.462,-0.146 0.722,-0.146 0.253,0 0.492,0.048 0.715,0.146 0.222,0.099 0.418,0.231 0.584,0.399 0.165,0.166 0.294,0.36 0.391,0.581 0.096,0.22 0.143,0.458 0.143,0.708 0,0.251 -0.047,0.487 -0.143,0.707 -0.097,0.224 -0.226,0.417 -0.391,0.584 -0.166,0.167 -0.362,0.3 -0.584,0.397 -0.223,0.098 -0.462,0.147 -0.715,0.147 m 1.833,-4.218 0,0.105 c -0.262,-0.21 -0.544,-0.37 -0.85,-0.481 -0.308,-0.112 -0.635,-0.167 -0.983,-0.167 -0.809,0 -1.498,0.286 -2.07,0.856 -0.572,0.572 -0.857,1.261 -0.857,2.07 0,0.808 0.285,1.499 0.857,2.069 0.572,0.573 1.261,0.858 2.07,0.858 0.801,0 1.491,-0.285 2.07,-0.858 0.57,-0.57 0.856,-1.261 0.856,-2.069 l 0,-2.383 c 0,-0.15 -0.053,-0.279 -0.16,-0.385 -0.104,-0.107 -0.234,-0.158 -0.384,-0.158 -0.153,0 -0.283,0.051 -0.389,0.158 -0.106,0.106 -0.16,0.235 -0.16,0.385"
           style="fill:#b3b3b3;fill-opacity:1;fill-rule:nonzero;stroke:none"
           id="path66"
           inkscape:connector-curvature="0" /><path
           d="m 466.7637,56.0992 0,-0.105 c 0.26,0.21 0.546,0.37 0.852,0.481 0.305,0.112 0.634,0.167 0.981,0.167 0.155,0 0.32,-0.01 0.495,-0.03 0.176,-0.022 0.338,-0.059 0.486,-0.114 0.146,-0.053 0.27,-0.126 0.368,-0.221 0.098,-0.095 0.148,-0.217 0.148,-0.366 0,-0.078 -0.016,-0.148 -0.046,-0.214 -0.03,-0.067 -0.069,-0.124 -0.117,-0.175 -0.05,-0.052 -0.107,-0.09 -0.172,-0.118 -0.067,-0.028 -0.139,-0.041 -0.216,-0.041 -0.066,0 -0.141,0.018 -0.23,0.057 -0.219,0.088 -0.458,0.13 -0.716,0.13 -0.254,0 -0.492,-0.048 -0.715,-0.142 -0.223,-0.098 -0.417,-0.228 -0.584,-0.393 -0.166,-0.166 -0.296,-0.361 -0.39,-0.583 -0.097,-0.224 -0.144,-0.463 -0.144,-0.716 l 0,-2.383 c 0,-0.15 -0.054,-0.279 -0.16,-0.385 -0.106,-0.107 -0.235,-0.158 -0.384,-0.158 -0.153,0 -0.282,0.051 -0.39,0.158 -0.105,0.106 -0.158,0.235 -0.158,0.385 l 0,4.766 c 0,0.15 0.053,0.278 0.158,0.383 0.108,0.107 0.237,0.16 0.39,0.16 0.149,0 0.278,-0.053 0.384,-0.16 0.106,-0.105 0.16,-0.233 0.16,-0.383"
           style="fill:#b3b3b3;fill-opacity:1;fill-rule:nonzero;stroke:none"
           id="path68"
           inkscape:connector-curvature="0" /><path
           d="m 470.7561,56.6424 0,1.966 c 0,0.149 0.053,0.277 0.16,0.384 0.109,0.106 0.237,0.159 0.39,0.159 0.15,0 0.277,-0.053 0.383,-0.159 0.108,-0.107 0.159,-0.235 0.159,-0.384 l 0,-1.966 0.655,0 c 0.148,0 0.276,-0.053 0.382,-0.16 0.104,-0.106 0.155,-0.233 0.155,-0.383 0,-0.154 -0.051,-0.283 -0.155,-0.39 -0.106,-0.105 -0.234,-0.159 -0.382,-0.159 l -0.655,0 0,-2.629 c 0,-0.693 0.351,-1.039 1.047,-1.039 0.148,0 0.277,-0.053 0.381,-0.161 0.104,-0.106 0.156,-0.234 0.156,-0.383 0,-0.154 -0.052,-0.284 -0.156,-0.39 -0.104,-0.107 -0.233,-0.159 -0.381,-0.159 -1.426,0 -2.139,0.712 -2.139,2.132 l 0,2.629"
           style="fill:#b3b3b3;fill-opacity:1;fill-rule:nonzero;stroke:none"
           id="path70"
           inkscape:connector-curvature="0" /><path
           d="m 478.5088,54.2593 c -0.06,0.192 -0.149,0.366 -0.266,0.525 -0.115,0.159 -0.251,0.295 -0.408,0.409 -0.153,0.113 -0.326,0.201 -0.51,0.262 -0.186,0.063 -0.38,0.096 -0.579,0.096 -0.198,0 -0.392,-0.033 -0.58,-0.096 -0.187,-0.061 -0.36,-0.149 -0.516,-0.262 -0.158,-0.114 -0.294,-0.25 -0.409,-0.409 -0.114,-0.159 -0.199,-0.333 -0.256,-0.525 l 3.524,0 z m -0.237,-1.824 c 0.159,0 0.288,-0.051 0.391,-0.154 0.102,-0.102 0.153,-0.232 0.153,-0.389 0,-0.153 -0.051,-0.286 -0.158,-0.392 -0.539,-0.475 -1.177,-0.71 -1.912,-0.71 -0.808,0 -1.498,0.285 -2.069,0.857 -0.573,0.57 -0.858,1.259 -0.858,2.069 0,0.809 0.285,1.499 0.858,2.07 0.571,0.571 1.261,0.856 2.069,0.856 0.801,0 1.49,-0.285 2.07,-0.856 0.285,-0.283 0.502,-0.598 0.642,-0.944 0.142,-0.348 0.216,-0.722 0.216,-1.126 0,-0.156 -0.053,-0.286 -0.161,-0.39 -0.105,-0.102 -0.234,-0.154 -0.388,-0.154 l -4.14,0 c 0.06,-0.192 0.148,-0.367 0.262,-0.527 0.114,-0.157 0.248,-0.293 0.403,-0.406 0.156,-0.113 0.327,-0.201 0.512,-0.264 0.188,-0.063 0.382,-0.093 0.584,-0.093 0.232,0 0.441,0.034 0.631,0.105 0.191,0.07 0.372,0.173 0.533,0.313 0.105,0.087 0.227,0.132 0.362,0.135"
           style="fill:#b3b3b3;fill-opacity:1;fill-rule:nonzero;stroke:none"
           id="path72"
           inkscape:connector-curvature="0" /><path
           d="m 488.8845,51.3386 c 0,-0.154 -0.052,-0.284 -0.158,-0.391 -0.108,-0.105 -0.236,-0.158 -0.385,-0.158 -0.152,0 -0.281,0.053 -0.388,0.158 -0.103,0.107 -0.155,0.237 -0.155,0.391 l 0,2.974 c 0,0.167 -0.033,0.324 -0.098,0.474 -0.063,0.15 -0.151,0.283 -0.265,0.395 -0.11,0.114 -0.241,0.203 -0.394,0.27 -0.15,0.065 -0.316,0.099 -0.487,0.099 -0.172,0 -0.331,-0.034 -0.48,-0.099 -0.151,-0.067 -0.284,-0.155 -0.397,-0.267 -0.112,-0.111 -0.202,-0.243 -0.266,-0.391 -0.066,-0.151 -0.096,-0.31 -0.096,-0.481 l 0,-2.974 c 0,-0.154 -0.053,-0.284 -0.159,-0.391 -0.108,-0.105 -0.235,-0.158 -0.384,-0.158 -0.155,0 -0.285,0.053 -0.39,0.158 -0.107,0.107 -0.159,0.237 -0.159,0.391 l 0,2.974 c 0,0.171 -0.035,0.33 -0.098,0.481 -0.068,0.148 -0.157,0.28 -0.268,0.391 -0.113,0.112 -0.241,0.2 -0.393,0.267 -0.151,0.065 -0.309,0.099 -0.479,0.099 -0.172,0 -0.334,-0.032 -0.482,-0.097 -0.15,-0.064 -0.281,-0.154 -0.395,-0.266 -0.114,-0.114 -0.202,-0.246 -0.268,-0.394 -0.063,-0.151 -0.094,-0.31 -0.094,-0.481 l 0,-2.974 c 0,-0.154 -0.055,-0.284 -0.16,-0.391 -0.106,-0.105 -0.234,-0.158 -0.386,-0.158 -0.153,0 -0.282,0.053 -0.388,0.158 -0.106,0.107 -0.159,0.237 -0.159,0.391 l 0,4.759 c 0,0.152 0.053,0.281 0.159,0.384 0.106,0.108 0.235,0.161 0.385,0.161 0.121,0 0.23,-0.035 0.325,-0.101 0.091,-0.069 0.157,-0.158 0.193,-0.271 0.371,0.248 0.793,0.372 1.27,0.372 0.346,0 0.676,-0.069 0.981,-0.207 0.307,-0.137 0.575,-0.345 0.806,-0.625 0.482,0.556 1.077,0.832 1.782,0.832 0.317,0 0.618,-0.061 0.902,-0.185 0.283,-0.124 0.531,-0.291 0.742,-0.502 0.21,-0.211 0.377,-0.457 0.499,-0.742 0.126,-0.284 0.187,-0.585 0.187,-0.901 l 0,-2.974 z"
           style="fill:#b3b3b3;fill-opacity:1;fill-rule:nonzero;stroke:none"
           id="path74"
           inkscape:connector-curvature="0" /><path
           d="m 494.4653,54.2593 c -0.056,0.192 -0.147,0.366 -0.262,0.525 -0.12,0.159 -0.252,0.295 -0.408,0.409 -0.156,0.113 -0.325,0.201 -0.514,0.262 -0.186,0.063 -0.378,0.096 -0.575,0.096 -0.2,0 -0.395,-0.033 -0.58,-0.096 -0.19,-0.061 -0.361,-0.149 -0.519,-0.262 -0.156,-0.114 -0.294,-0.25 -0.406,-0.409 -0.116,-0.159 -0.2,-0.333 -0.259,-0.525 l 3.523,0 z m -0.233,-1.824 c 0.155,0 0.285,-0.051 0.389,-0.154 0.104,-0.102 0.155,-0.232 0.155,-0.389 0,-0.153 -0.054,-0.286 -0.158,-0.392 -0.54,-0.475 -1.179,-0.71 -1.912,-0.71 -0.81,0 -1.498,0.285 -2.072,0.857 -0.57,0.57 -0.855,1.259 -0.855,2.069 0,0.809 0.285,1.499 0.855,2.07 0.574,0.571 1.262,0.856 2.072,0.856 0.798,0 1.49,-0.285 2.07,-0.856 0.283,-0.283 0.498,-0.598 0.642,-0.944 0.142,-0.348 0.213,-0.722 0.213,-1.126 0,-0.156 -0.053,-0.286 -0.159,-0.39 -0.108,-0.102 -0.234,-0.154 -0.391,-0.154 l -4.139,0 c 0.062,-0.192 0.149,-0.367 0.262,-0.527 0.116,-0.157 0.25,-0.293 0.405,-0.406 0.156,-0.113 0.327,-0.201 0.513,-0.264 0.187,-0.063 0.381,-0.093 0.584,-0.093 0.227,0 0.44,0.034 0.631,0.105 0.19,0.07 0.369,0.173 0.533,0.313 0.105,0.087 0.226,0.132 0.362,0.135"
           style="fill:#b3b3b3;fill-opacity:1;fill-rule:nonzero;stroke:none"
           id="path76"
           inkscape:connector-curvature="0" /><path
           d="m 497.6678,56.104 c 0.463,0.359 1.009,0.538 1.637,0.538 0.365,0 0.713,-0.07 1.044,-0.213 0.328,-0.143 0.617,-0.338 0.868,-0.584 0.249,-0.245 0.451,-0.534 0.595,-0.867 0.145,-0.333 0.22,-0.688 0.22,-1.064 l 0,-2.575 c 0,-0.155 -0.053,-0.285 -0.158,-0.391 -0.108,-0.106 -0.237,-0.158 -0.385,-0.158 -0.153,0 -0.284,0.052 -0.391,0.158 -0.103,0.106 -0.159,0.236 -0.159,0.391 l 0,2.575 c 0,0.223 -0.042,0.435 -0.13,0.633 -0.087,0.198 -0.205,0.372 -0.354,0.52 -0.147,0.149 -0.32,0.265 -0.519,0.353 -0.199,0.087 -0.409,0.131 -0.631,0.131 -0.229,0 -0.441,-0.044 -0.636,-0.129 -0.197,-0.086 -0.371,-0.202 -0.519,-0.352 -0.152,-0.151 -0.267,-0.325 -0.353,-0.523 -0.088,-0.198 -0.129,-0.41 -0.129,-0.633 l 0,-2.575 c 0,-0.155 -0.054,-0.285 -0.16,-0.391 -0.105,-0.106 -0.233,-0.158 -0.385,-0.158 -0.152,0 -0.282,0.052 -0.388,0.158 -0.106,0.106 -0.16,0.236 -0.16,0.391 l 0,4.755 c 0,0.15 0.054,0.28 0.16,0.386 0.106,0.109 0.236,0.162 0.388,0.162 0.152,0 0.28,-0.053 0.385,-0.162 0.106,-0.106 0.16,-0.232 0.16,-0.376"
           style="fill:#b3b3b3;fill-opacity:1;fill-rule:nonzero;stroke:none"
           id="path78"
           inkscape:connector-curvature="0" /><path
           d="m 503.0265,56.6424 0,1.966 c 0,0.149 0.054,0.277 0.16,0.384 0.104,0.106 0.237,0.159 0.387,0.159 0.15,0 0.28,-0.053 0.385,-0.159 0.107,-0.107 0.161,-0.235 0.161,-0.384 l 0,-1.966 0.652,0 c 0.15,0 0.276,-0.053 0.381,-0.16 0.105,-0.106 0.158,-0.233 0.158,-0.383 0,-0.154 -0.053,-0.283 -0.158,-0.39 -0.105,-0.105 -0.231,-0.159 -0.381,-0.159 l -0.652,0 0,-2.629 c 0,-0.693 0.348,-1.039 1.045,-1.039 0.147,0 0.276,-0.053 0.38,-0.161 0.103,-0.106 0.159,-0.234 0.159,-0.383 0,-0.154 -0.056,-0.284 -0.159,-0.39 -0.104,-0.107 -0.233,-0.159 -0.38,-0.159 -1.427,0 -2.138,0.712 -2.138,2.132 l 0,2.629"
           style="fill:#b3b3b3;fill-opacity:1;fill-rule:nonzero;stroke:none"
           id="path80"
           inkscape:connector-curvature="0" /><path
           d="m 429.7062,58.7496 c -0.024,0.079 -0.064,0.152 -0.127,0.217 -0.066,0.069 -0.148,0.115 -0.241,0.139 -0.045,0.011 -0.092,0.019 -0.141,0.019 l 0,-10e-4 -0.005,10e-4 c -0.155,0 -0.285,-0.053 -0.387,-0.158 -0.102,-0.106 -0.154,-0.236 -0.154,-0.388 l 0,-0.541 0,-6.686 0,-0.003 c 0,-0.059 0.011,-0.113 0.027,-0.165 0.024,-0.081 0.064,-0.154 0.127,-0.218 0.067,-0.07 0.149,-0.116 0.241,-0.139 0.045,-0.011 0.092,-0.02 0.141,-0.02 l 0,10e-4 0.005,-10e-4 c 0.156,0 0.284,0.053 0.386,0.159 0.103,0.106 0.154,0.234 0.154,0.386 l 0,0.543 0,6.684 0,0.005 c 0,0.059 -0.009,0.113 -0.026,0.166"
           style="fill:#b3b3b3;fill-opacity:1;fill-rule:nonzero;stroke:none"
           id="path82"
           inkscape:connector-curvature="0" /></g><g
         id="g5913"><path
           d="m 481.3388,111.242 c -2.811,-2.81 -25.548,-2.81 -28.356,0 2.808,-2.81 2.808,-25.545 0,-28.356 2.808,2.811 25.545,2.811 28.356,0 -2.811,2.811 -2.811,25.546 0,28.356"
           style="fill:#b93521;fill-opacity:1;fill-rule:nonzero;stroke:none"
           id="path104"
           inkscape:connector-curvature="0"
           sodipodi:nodetypes="ccccc" /><g
           id="g5887"><g
             id="g5882"><path
               sodipodi:nodetypes="ccccscccc"
               d="m 466.6548,90.82 c 0.263,-0.199 0.419,-0.47 0.434,-0.835 -0.781,-0.197 -1.461,-0.358 -2.096,-0.504 l -0.629,-0.144 c -2.514,-0.553 -3.828,-0.692 -4.501,-0.692 -0.655,0 -0.795,0.124 -0.828,0.177 -0.008,0.013 -0.031,0.056 0.024,0.152 0.407,0.704 3.506,2.037 5.744,2.194 0,0 1.30045,0.122978 1.852,-0.348 z"
               style="fill:#8c80be;fill-opacity:1;fill-rule:nonzero;stroke:none"
               id="path5642"
               inkscape:connector-curvature="0" /><path
               inkscape:connector-curvature="0"
               id="path5644"
               style="fill:#8c80be;fill-opacity:1;fill-rule:nonzero;stroke:none"
               d="m 464.7508,89.13 c 0.655,0.211 1.45,0.441 2.43,0.69 4.681,-1.191 5.308,-1.946 5.264,-2.292 -0.075,-0.603 -2.338,-1.058 -5.264,-1.058 -2.926,0 -5.188,0.455 -5.264,1.057 -0.032,0.255 0.306,0.733 2.351,1.442 z"
               sodipodi:nodetypes="cccsccc" /><path
               inkscape:connector-curvature="0"
               id="path5646"
               style="fill:#8c80be;fill-opacity:1;fill-rule:nonzero;stroke:none"
               d="m 474.4998,88.645 c -0.885,0 -2.855,0.233 -7.225,1.34 0.034,0.796 0.663,1.199 1.868,1.199 0.323,0 0.664,-0.028 1.013,-0.077 -1.61665,0.294449 0.47,-0.08 0.47,-0.08 2.275,-0.44 4.712,-1.68 4.712,-2.16 0,-0.107 -0.22,-0.222 -0.838,-0.222"
               sodipodi:nodetypes="ccsccsc" /></g><path
             sodipodi:nodetypes="cccccccccccccccccscccccccccssccccccc"
             d="m 470.1558,91.107 c -0.263,0.141 -0.629,0.235 -1.337,0.381 -1.5908,-0.08782 -2.69907,-0.9068 -3.826,-2.007 -0.083,-0.111 -0.164,-0.228 -0.242,-0.351 l -0.483,-0.161 c 0.029,0.111 0.061,0.233 0.096,0.368 l 0.439,1.831 c 0.06,0.43 0.024,0.756 -0.121,0.855 -0.182,0.124 -0.586,0.246 -0.344,0.225 0.242,-0.019 0.908,-0.019 1.27,0.143 0.365,0.166 1.273,0.701 1.78,0.948 0.504,0.246 1.028,0.659 1.288,1.11 0.264,0.451 0.365,0.534 0.365,0.534 l 0.018,0.185 0.044,0.35 0.16,-0.205 0.079,0.081 c 0,0 -0.026,0.048 -0.079,0.144 -0.053,0.096 -0.251,0.353 -0.465,0.527 -0.272,0.223 -0.681,0.237 -0.674,0.233 0,-0.002 0.06,0.027 0.15,0.043 0.485,0.082 0.991,-0.2 1.17,-0.37 0.183,-0.172 0.385,-0.618 0.385,-0.618 l 0.081,0.206 c 0,0 0.017,-0.084 0.039,-0.184 0.02,-0.106 -0.022,-0.29 0.02,-0.37 0.039,-0.082 0.181,-0.27 0.283,-0.392 0.099,-0.123 0.283,-0.41 0.262,-0.515 -0.02,-0.1 -0.181,-0.183 -0.284,-0.183 -0.1,0 -0.281,0.061 -0.281,0.061 l -0.161,-0.166 c 0,0 -0.102,0.146 -0.182,0.206 -0.081,0.063 -0.243,0.02 -0.322,-0.101 -0.082,-0.123 -0.021,-0.412 0.1,-0.823 0.121,-0.412 0.302,-0.803 0.644,-1.276 0.143,-0.196 0.374,-0.499 0.598,-0.789"
             style="fill:#fff8bd;fill-opacity:1;fill-rule:nonzero;stroke:none"
             id="path5655"
             inkscape:connector-curvature="0" /><path
             inkscape:connector-curvature="0"
             id="path5657"
             style="fill:#ffffff;fill-opacity:1;fill-rule:nonzero;stroke:none"
             d="m 473.8848,95.37 c 0.058,-0.207 0.447,-1.086 0.523,-1.326 -1.315,0.146 -4.419,3.598 -5.467,4.33 0.038,-0.273 1.107,-2.106 1.128,-2.384 -1.821,1.945 -3.391,0.513 -4.598,1.236 -0.802,-0.695 0.209,-1.631 0.262,-2.563 -0.635,0.137 -2.855,-0.576 -3.429,-0.331 0.083,-1.406 -2.234,-2.001 -1.085,-2.761 -1.907,0.018 -0.484,1.263 -1.749,2.395 0.142,0.153 0.314,0.251 0.478,0.377 -0.243,0.308 -0.493,0.452 -0.875,0.61 -1.291,-0.864 -2.052,-2.231 -3.404,-2.944 l -0.214,-0.195 c 1.223,1.881 2.392,4.206 4.201,5.623 0.556,-0.808 1.111,-1.651 1.583,-2.474 1.336,0.243 3.257,2.854 3.967,3.924 -0.022,0.004 0.003,0.064 0.092,0.196 0.301,0.448 0.219,0.271 -0.092,-0.196 0.161,-0.029 2.695,2.671 2.695,2.671 0,0 0.751,-0.405 1.646,-1.592 0.718,-0.949 1.264,-1.314 1.906,-2.3 0.248,-0.381 0.596,-1.203 0.957,-1.422 0.647,-0.392 1.091,0.069 1.54,-0.139 2.03,-0.922 2.882,-2.859 5.171,-3.615 -2.103,0.491 -3.187,2.399 -5.236,2.88"
             sodipodi:nodetypes="ccccccccccccccccccccccccc" /><g
             id="g5863"><g
               id="g5844"><path
                 inkscape:connector-curvature="0"
                 id="path84"
                 style="fill:#e5af0a;fill-opacity:1;fill-rule:nonzero;stroke:none"
                 d="m 464.8246,104.3331 c 0.057,0.33 0.133,0.621 0.292,0.865 -0.166,-0.114 -0.295,-0.227 -0.399,-0.38 -0.209,-0.406 -0.053,-0.792 0.039,-1.218 0.125,-0.622 0.581,-1.316 1.463,-1.602 0.899,-0.306 1.955,0.111 2.521,0.642 0.079,0.046 0.263,0.254 0.33,0.438 -0.858,-0.944 -2.01,-1.212 -3.029,-0.785 -0.939,0.448 -1.25,1.327 -1.217,2.04" /><path
                 inkscape:connector-curvature="0"
                 id="path86"
                 style="fill:#e5af0a;fill-opacity:1;fill-rule:nonzero;stroke:none"
                 d="m 468.5653,106.8902 c -0.398,0.213 -0.789,0.354 -1.192,0.421 0.345,-0.169 0.752,-0.402 1.072,-0.637 0.448,-0.315 0.887,-0.735 1.075,-1.413 -0.088,0.71 -0.464,1.248 -0.955,1.629" /><path
                 sodipodi:nodetypes="ccccccccccccccccccccccccccccccccccccc"
                 d="m 464.8438,105.902 c 0.419,1.101 2.098,1.469 3.323,0.848 0.321,-0.076 0.561,-0.592 0.784,-0.818 0.414,-0.332 0.579,-1.016 0.517,-1.645 0.086,0.324 0.122,0.671 0.052,0.974 0.248,-0.58 0.082,-1.462 -0.227,-1.896 l -0.222,-0.288 c 0.027,0.076 0.029,0.143 0.014,0.201 -0.07,-0.078 -0.142,-0.15 -0.228,-0.202 -0.932,-0.97 -2.601,-0.963 -3.292,-0.143 -0.536,0.602 -0.671,1.326 -0.55,1.924 -10e-4,0.005 -0.002,0.007 -0.002,0.011 0.002,0.005 0.006,0.011 0.007,0.016 0.031,0.142 0.071,0.278 0.127,0.401 l -0.022,0.081 -0.071,-0.045 0.062,0.086 c -0.003,0.149 0.022,0.311 0.201,0.415 0.098,0.039 -0.012,-0.095 0.08,-0.141 0.016,0.025 0.042,0.051 0.042,0.051 0,0 0.025,-0.006 0.058,-0.012 0.266,0.348 0.587,0.635 0.951,0.726 -0.319,-0.211 -0.558,-0.855 -0.801,-0.998 l 0,-0.01 c 0.054,0.012 0.099,0.033 0.142,0.055 0.03,0.14 0.193,0.246 0.302,0.3 0.183,0.278 0.339,0.6 0.963,0.54 0.085,-0.011 0.187,-0.005 0.306,0.009 -0.28,0.044 -0.523,0.25 -0.822,0.256 0.576,0.262 1.337,-0.023 1.868,-0.432 0.112,-0.088 0.331,-0.136 0.469,-0.196 -0.216,0.315 -0.483,0.545 -0.792,0.696 -1.27,0.629 -2.445,-0.466 -3.055,-0.653 l -0.036,-0.093 -0.049,-0.012 c -0.094,-0.109 -0.217,-0.225 -0.386,-0.305 z"
                 style="fill:#e5af0a;fill-opacity:1;fill-rule:nonzero;stroke:none"
                 id="path5653"
                 inkscape:connector-curvature="0" /></g><g
               id="g5849"><path
                 inkscape:connector-curvature="0"
                 id="path88"
                 style="fill:#b93521;fill-opacity:1;fill-rule:nonzero;stroke:none"
                 d="m 465.5594,104.4627 -0.061,0.172 c -0.028,0.075 -0.075,0.142 -0.119,0.21 -10e-4,-0.007 -0.003,-0.012 -0.004,-0.018 -0.043,-0.205 0.052,-0.313 0.184,-0.364" /><path
                 inkscape:connector-curvature="0"
                 id="path90"
                 style="fill:#b93521;fill-opacity:1;fill-rule:nonzero;stroke:none"
                 d="m 467.0486,104.4991 c 0.023,0.062 0.059,0.163 -0.022,0.172 -0.121,0.003 -0.245,0.264 -0.448,0.2 -0.003,-0.004 -0.004,-0.014 -0.006,-0.02 0.078,-0.006 0.138,-0.011 0.156,-0.013 -0.061,-0.026 -0.112,-0.044 -0.167,-0.066 -0.004,-0.045 -0.007,-0.087 -0.017,-0.088 -0.028,0.009 -0.054,0.009 -0.08,0.009 -0.011,-0.039 -0.021,-0.078 -0.036,-0.112 0.002,-0.018 0.005,-0.033 0.008,-0.05 0.079,0.02 0.161,0.035 0.25,0.035 -0.053,-0.03 -0.132,-0.088 -0.215,-0.15 0.045,-0.108 0.121,-0.165 0.254,-0.096 0.029,-0.01 0.146,-0.043 -0.012,0.178 0.188,0.045 0.291,0.026 0.335,0.001" /><path
                 inkscape:connector-curvature="0"
                 id="path92"
                 style="fill:#b93521;fill-opacity:1;fill-rule:nonzero;stroke:none"
                 d="m 466.304,104.8753 c 0.061,-0.007 0.122,-0.013 0.18,-0.018 0,0.06 -0.012,0.122 -0.033,0.185 -0.051,-0.002 -0.101,-0.003 -0.149,-0.005 -0.008,-0.052 -0.013,-0.105 0,-0.156 10e-4,-0.003 0.002,-0.004 0.002,-0.006" /><path
                 inkscape:connector-curvature="0"
                 id="path94"
                 style="fill:#b93521;fill-opacity:1;fill-rule:nonzero;stroke:none"
                 d="m 465.6468,105.3979 c 0.001,-0.009 0.002,-0.018 0.004,-0.025 0.023,0.058 0.03,0.075 -0.004,0.025" /><path
                 inkscape:connector-curvature="0"
                 id="path96"
                 style="fill:#b93521;fill-opacity:1;fill-rule:nonzero;stroke:none"
                 d="m 467.8719,103.1375 c -0.153,-0.04 -0.324,-0.031 -0.497,-0.005 l -0.141,-0.035 -0.172,-0.073 c -0.272,0.008 -0.522,0.094 -0.718,0.223 0.176,-0.264 0.498,-0.449 0.866,-0.387 -0.957,-0.278 -1.488,0.609 -1.538,1.2 -0.094,-0.021 -0.189,-0.035 -0.278,-0.017 0.137,-0.574 0.502,-1.161 1.349,-1.378 0.658,-0.096 1.285,0.049 1.862,0.557 0.738,0.459 0.842,2.027 0.196,2.744 0.74,-1.231 -0.149,-2.756 -0.929,-2.829" /><path
                 inkscape:connector-curvature="0"
                 id="path98"
                 style="fill:#b93521;fill-opacity:1;fill-rule:nonzero;stroke:none"
                 d="m 468.0329,103.5383 c -0.003,-0.025 -0.028,-0.077 -0.069,-0.111 0.185,0.233 0.464,0.463 0.463,0.834 0.001,0.013 -10e-4,0.023 0,0.036 -0.058,-0.211 -0.171,-0.485 -0.394,-0.759" /><path
                 inkscape:connector-curvature="0"
                 id="path100"
                 style="fill:#b93521;fill-opacity:1;fill-rule:nonzero;stroke:none"
                 d="m 468.8267,104.2329 c 10e-4,0.079 0.14,0.123 0.163,0.216 0.199,0.94 -0.538,1.526 -1.129,1.858 -0.115,0.109 -0.362,0.017 -0.501,0.035 0.098,-0.048 0.183,-0.094 0.274,-0.192 0.631,-0.261 1.374,-0.926 1.193,-1.917" /><path
                 inkscape:connector-curvature="0"
                 id="path102"
                 style="fill:#b93521;fill-opacity:1;fill-rule:nonzero;stroke:none"
                 d="m 469.0841,103.278 c 0.22,0.25 0.346,0.617 0.384,1.009 -0.099,-0.372 -0.269,-0.71 -0.464,-0.9 0.048,-0.025 0.067,-0.065 0.08,-0.109" /><path
                 inkscape:connector-curvature="0"
                 id="path106"
                 style="fill:#b93521;fill-opacity:1;fill-rule:nonzero;stroke:none"
                 d="m 466.4641,104.6936 c 0.005,0.016 0.011,0.028 0.015,0.045 -0.036,-0.014 -0.075,-0.029 -0.11,-0.04 0.005,-0.008 0.01,-0.014 0.016,-0.02 0.024,0.01 0.051,0.016 0.079,0.015" /><path
                 inkscape:connector-curvature="0"
                 id="path108"
                 style="fill:#b93521;fill-opacity:1;fill-rule:nonzero;stroke:none"
                 d="m 466.3846,104.6788 c -0.071,-0.03 -0.121,-0.097 -0.108,-0.187 -10e-4,-0.001 0,-0.001 -10e-4,-0.003 0.037,0.01 0.077,0.02 0.116,0.031 0.013,0.02 0.025,0.037 0.037,0.061 -0.002,0.018 -0.007,0.033 -0.008,0.049 -0.012,0.011 -0.023,0.032 -0.036,0.049" /><path
                 inkscape:connector-curvature="0"
                 id="path110"
                 style="fill:#b93521;fill-opacity:1;fill-rule:nonzero;stroke:none"
                 d="m 468.4268,104.2977 c 0,0.003 0.002,0.006 0.002,0.009 0.005,0.185 0.018,0.294 0.03,0.332 -0.053,0.829 -0.942,1.382 -1.382,1.066 0.578,0.039 1.428,-0.472 1.35,-1.407" /><path
                 inkscape:connector-curvature="0"
                 id="path112"
                 style="fill:#b93521;fill-opacity:1;fill-rule:nonzero;stroke:none"
                 d="m 468.4317,104.3144 c -10e-4,-0.002 -0.002,-0.006 -0.003,-0.008 0,-0.017 -0.002,-0.025 -0.002,-0.045 0.005,0.019 0.001,0.035 0.005,0.053" /></g></g></g></g></g></g></svg>